#!OML:ASF F:\VICON\USERDATA\INSTALL\rory3\rory3.ASF
:FULLY-SPECIFIED
:DEGREES
447
root 6.48308 17.5757 12.4522 -182.992 -7.77303 -177.844
lowerback 14.8869 1.75228 -2.9862
upperback 1.16566 1.77606 1.68909
thorax -7.26598 0.908912 3.13208
lowerneck -15.2684 -3.40595 -12.0691
upperneck 35.065 -8.3772 9.62119
head 15.9062 -4.97097 4.46161
rclavicle -1.83814e-014 -6.03808e-015
rhumerus -42.1452 -26.7062 -67.3589
rradius 35.9127
rwrist 6.76768
rhand -21.4984 7.18912
rfingers 7.12502
rthumb 4.89309 -22.7344
lclavicle -1.83814e-014 -6.03808e-015
lhumerus -34.8948 8.26202 73.7283
lradius 38.5631
lwrist -1.95924
lhand -18.1252 27.3444
lfingers 7.12502
lthumb 8.1495 57.1673
rfemur 0.780368 2.27983 1.2316
rtibia 25.4422
rfoot 0.0892249 -4.6563
rtoes 3.80155
lfemur -5.16612 -7.00143 -7.76753
ltibia 26.0342
lfoot -15.3727 -3.24566
ltoes -19.8161
448
root 6.61386 17.5552 12.4443 -183.035 -7.82576 -177.758
lowerback 14.841 1.69457 -2.91658
upperback 1.19599 1.71111 1.70317
thorax -7.20095 0.873031 3.12218
lowerneck -15.337 -3.34765 -12.0338
upperneck 35.1492 -8.26016 9.51218
head 15.9369 -4.93222 4.43089
rclavicle -1.9338e-014 -6.01945e-015
rhumerus -41.9635 -26.8829 -67.463
rradius 36.016
rwrist 6.88455
rhand -21.5991 7.06053
rfingers 7.12502
rthumb 4.79593 -22.8652
lclavicle -1.9338e-014 -6.01945e-015
lhumerus -34.8873 8.78317 73.2653
lradius 38.3406
lwrist -2.02036
lhand -17.8761 27.2905
lfingers 7.12502
lthumb 8.3899 57.1039
rfemur 1.15453 2.56984 1.41785
rtibia 25.2131
rfoot -1.71045 -3.62245
rtoes -4.96458
lfemur -5.2346 -7.52427 -7.17145
ltibia 26.1056
lfoot -15.3074 -3.26459
ltoes -19.1175
449
root 6.74864 17.5343 12.4359 -183.133 -7.89218 -177.561
lowerback 14.7949 1.64153 -2.714
upperback 1.22403 1.67454 1.72902
thorax -7.13692 0.846857 3.0431
lowerneck -15.3099 -3.28895 -12.1695
upperneck 35.3013 -8.24098 9.63156
head 16.0174 -4.94655 4.5158
rclavicle -2.63547e-014 5.32914e-015
rhumerus -41.9464 -26.963 -67.5737
rradius 36.2099
rwrist 6.95581
rhand -21.8293 7.16483
rfingers 7.12502
rthumb 4.5736 -22.7658
lclavicle -2.63547e-014 5.32914e-015
lhumerus -34.9152 9.08876 72.837
lradius 38.1009
lwrist -1.92835
lhand -17.6995 27.0021
lfingers 7.12502
lthumb 8.56037 56.8086
rfemur 1.52423 2.91664 1.80331
rtibia 25.0424
rfoot -2.81223 -2.95853
rtoes -9.95547
lfemur -5.20844 -8.14711 -6.4545
ltibia 26.0648
lfoot -15.2404 -3.2218
ltoes -18.3077
450
root 6.88797 17.5089 12.4343 -183.138 -7.98271 -177.549
lowerback 14.8216 1.58949 -2.68717
upperback 1.17295 1.61041 1.68649
thorax -7.19959 0.817573 2.99514
lowerneck -15.115 -3.21618 -12.3696
upperneck 35.3342 -8.21874 9.8452
head 16.0052 -4.95868 4.6533
rclavicle -3.87987e-014 -2.75814e-015
rhumerus -42.0459 -26.9278 -67.7139
rradius 36.4302
rwrist 6.70146
rhand -22.0248 7.7738
rfingers 7.12502
rthumb 4.38486 -22.1608
lclavicle -3.87987e-014 -2.75814e-015
lhumerus -35.1137 9.30852 72.3813
lradius 38.0326
lwrist -1.78174
lhand -17.7083 27.6474
lfingers 7.12502
lthumb 8.55181 57.4542
rfemur 1.75329 3.27656 2.00852
rtibia 24.8897
rfoot -3.34858 -2.54328
rtoes -11.4916
lfemur -5.22805 -8.51651 -5.90932
ltibia 25.9112
lfoot -15.021 -3.07503
ltoes -20.8135
451
root 7.03293 17.4806 12.4366 -183.017 -8.1006 -177.831
lowerback 14.8561 1.55739 -3.00293
upperback 1.10579 1.5133 1.56953
thorax -7.2891 0.784111 3.06922
lowerneck -15.1736 -3.16817 -12.3318
upperneck 35.4025 -8.13619 9.7849
head 16.0341 -4.9284 4.63677
rclavicle 2.35529e-014 -2.75814e-015
rhumerus -42.0212 -26.9539 -67.8815
rradius 36.5639
rwrist 6.42089
rhand -22.1342 8.33992
rfingers 7.12502
rthumb 4.27921 -21.5968
lclavicle 2.35529e-014 -2.75814e-015
lhumerus -35.1981 9.63841 71.9261
lradius 37.9153
lwrist -1.7301
lhand -17.9511 28.2776
lfingers 7.12502
lthumb 8.31754 58.0938
rfemur 1.85384 3.56816 1.92016
rtibia 24.7394
rfoot -3.88087 -2.33325
rtoes -10.4702
lfemur -5.32819 -8.77217 -5.6907
ltibia 25.6865
lfoot -14.8093 -2.65124
ltoes -25.9655
